<?xml version="1.0" encoding="UTF-8" standalone="no"?>
<svg width="71px" height="23px" viewBox="0 0 71 23" version="1.1" xmlns="http://www.w3.org/2000/svg" xmlns:xlink="http://www.w3.org/1999/xlink">
  <!-- Generator: Sketch 43.2 (39069) - http://www.bohemiancoding.com/sketch -->
  <title>hamburger-menu</title>
  <desc>Created with Sketch.</desc>
  <defs>
  </defs>
  <rect id="rect" width="40%" height="100%" fill="none" />
  <clipPath id="clip">
    <use xlink:href="#rect"/>
  </clipPath>
  <use xlink:href="#rect"/>

  <style type="text/css">
    #hamburger-menu:hover {
      stroke: #7f7f7f
    }
  </style>

  <g id="page" clip-path="url(#clip)" stroke="none" stroke-width="1" fill="none" fill-rule="evenodd">
    <g id="hamburger-menu" class="hamburger" stroke="#333" stroke-width="3">
      <rect id="rectangle" fill="#fff" x="0" y="0" width="56" height="23" stroke='none'></rect>
      <path d="M0,3.00032471 C2.30629529,3.00032471 4.70261148,5.05733279 4.70261148,5.05733279 C4.70261148,5.05733279 7.09617665,7.34956811 9.40522297,7.34956811 C11.7142693,7.34956811 14.1078344,5.05733279 14.1078344,5.05733279 C14.1078344,5.05733279 16.5027536,3.00032471 18.8104459,3.00032471 C21.1181382,3.00032471 23.5130574,5.05733279 23.5130574,5.05733279 C23.5130574,5.05733279 25.9079766,7.34956811 28.2156689,7.34956811 C30.5233612,7.34956811 32.9182804,5.05733279 32.9182804,5.05733279 C32.9182804,5.05733279 35.3131996,3.00032471 37.6208919,3.00032471 C39.9285842,3.00032471 42.3235033,5.05733279 42.3235033,5.05733279 C42.3235033,5.05733279 44.7184225,7.34956811 47.0261148,7.34956811 C49.3338071,7.34956811 51.7287263,5.05733279 51.7287263,5.05733279 C51.7287263,5.05733279 54.0158858,2.97011915 56.4313378,3.00032471" id="Path-2"></path>
      <path d="M0,16.0003247 C2.30629529,16.0003247 4.70261148,18.0573328 4.70261148,18.0573328 C4.70261148,18.0573328 7.09617665,20.3495681 9.40522297,20.3495681 C11.7142693,20.3495681 14.1078344,18.0573328 14.1078344,18.0573328 C14.1078344,18.0573328 16.5027536,16.0003247 18.8104459,16.0003247 C21.1181382,16.0003247 23.5130574,18.0573328 23.5130574,18.0573328 C23.5130574,18.0573328 25.9079766,20.3495681 28.2156689,20.3495681 C30.5233612,20.3495681 32.9182804,18.0573328 32.9182804,18.0573328 C32.9182804,18.0573328 35.3131996,16.0003247 37.6208919,16.0003247 C39.9285842,16.0003247 42.3235033,18.0573328 42.3235033,18.0573328 C42.3235033,18.0573328 44.7184225,20.3495681 47.0261148,20.3495681 C49.3338071,20.3495681 51.7287263,18.0573328 51.7287263,18.0573328 C51.7287263,18.0573328 54.0158858,15.9701191 56.4313378,16.0003247" id="Path-2-Copy"></path>
    </g>
  </g>

  <animateTransform attributeName="transform"
    xlink:href="#hamburger-menu"
    type="translate"
    from="0 0"
    to="-19 0"
    begin="page.mouseover"
    end="page.mouseout"
    dur="1s"
    repeatCount="indefinite"
  />
</svg>
